<svg xmlns="http://www.w3.org/2000/svg" xmlns:xlink="http://www.w3.org/1999/xlink" width="20" height="24" viewBox="0 0 20 24"><defs><path id="1625a" d="M395.087 4405.26c-1.2 1.827-2.399 2.733-3.584 2.733-.474 0-1.116-.153-1.953-.446-.822-.307-1.534-.446-2.106-.446-.557 0-1.227.153-1.98.46-.767.321-1.38.474-1.841.474-1.436 0-2.817-1.213-4.198-3.612-1.353-2.399-2.05-4.728-2.05-7.015 0-2.134.53-3.863 1.576-5.216 1.046-1.339 2.357-2.008 3.96-2.008.684 0 1.493.14 2.47.418.962.279 1.603.418 1.924.418.404 0 1.074-.153 1.994-.474.92-.306 1.73-.474 2.413-.474 1.116 0 2.106.307 2.97.907.489.334.977.808 1.451 1.394-.725.614-1.255 1.158-1.59 1.646a4.96 4.96 0 0 0-.906 2.887c0 1.143.32 2.19.962 3.11.642.92 1.38 1.506 2.204 1.757-.35 1.102-.907 2.273-1.716 3.487zm-3.933-17.95a5.724 5.724 0 0 1-1.297 1.925c-.502.502-1.004.837-1.506 1.005-.32.097-.795.18-1.45.237.027-1.381.39-2.58 1.087-3.585.698-1.004 1.87-1.687 3.487-2.064.028.126.056.223.07.307 0 .098.014.181.014.279 0 .572-.14 1.213-.405 1.897z"/></defs><g><g transform="translate(-377 -4384)"><use fill="#c5c5c5" xlink:href="#1625a"/></g></g></svg>