<svg xmlns="http://www.w3.org/2000/svg" xmlns:xlink="http://www.w3.org/1999/xlink" width="41" height="41" viewBox="0 0 41 41"><defs><path id="xdyha" d="M357 76.5c0 11.304-9.196 20.5-20.5 20.5s-20.501-9.196-20.501-20.5 9.197-20.5 20.5-20.5c11.305 0 20.502 9.196 20.502 20.5zm-3.166 0c0-9.558-7.776-17.334-17.334-17.334s-17.334 7.776-17.334 17.334 7.776 17.334 17.334 17.334 17.334-7.776 17.334-17.334zm-9.445 0c0 4.35-3.54 7.889-7.89 7.889s-7.888-3.54-7.888-7.889c0-4.35 3.539-7.89 7.889-7.89s7.889 3.54 7.889 7.89zm-3.167 0a4.728 4.728 0 0 0-4.722-4.722 4.728 4.728 0 0 0-4.723 4.722 4.728 4.728 0 0 0 4.723 4.722 4.727 4.727 0 0 0 4.722-4.722z"/></defs><g><g transform="translate(-316 -56)"><use fill="#fff" xlink:href="#xdyha"/></g></g></svg>